<svg xmlns="http://www.w3.org/2000/svg" viewBox="0 0 48 48" role="img" aria-hidden="true">
  <path fill="#25D366" d="M24 4C12.954 4 4 12.954 4 24c0 4.991 1.804 9.567 4.789 13.129L4.5 43.5l6.471-4.254A19.877 19.877 0 0024 44C35.046 44 44 35.046 44 24S35.046 4 24 4z"/>
  <path fill="#FFF" d="M33.403 29.313c-.371-.186-2.196-1.083-2.537-1.207-.341-.124-.589-.186-.837.186-.248.372-.961 1.207-1.177 1.455-.217.248-.434.279-.805.093-.371-.186-1.567-.577-2.984-1.839-1.103-.982-1.847-2.195-2.062-2.567-.217-.372-.023-.573.163-.757.149-.149.371-.372.557-.558.186-.186.248-.372.372-.619.124-.248.062-.465-.031-.619-.093-.155-.837-2.013-1.147-2.756-.309-.729-.619-.62-.837-.62-.217 0-.465-.031-.713-.031-.248 0-.651.093-1.023.465-.372.372-1.423 1.393-1.423 3.402 0 2.009 1.456 3.946 1.673 4.194.217.248 2.849 4.351 6.894 6.113.963.415 1.704.663 2.284.849.961.306 1.836.263 2.527.159.775-.116 2.196-.897 2.504-1.765.309-.868.309-1.612.217-1.765-.093-.155-.341-.248-.713-.434z"/>
  <path fill="#FFF" d="M24.005 41.008h-.004A17.873 17.873 0 0114.972 38.6l-.361-.214-6.741 1.982 1.998-6.648-.235-.374a17.86 17.86 0 01-2.721-9.47C7.309 11.986 15.373 3.922 25.273 3.922c4.796 0 9.302 1.869 12.678 5.26a17.825 17.825 0 015.26 12.704c-.003 9.9-8.067 17.964-17.964 17.964z"/>
</svg>
